<?xml version="1.0" encoding="utf-8"?>
<!-- Generator: Adobe Illustrator 16.0.4, SVG Export Plug-In . SVG Version: 6.00 Build 0)  -->
<!DOCTYPE svg PUBLIC "-//W3C//DTD SVG 1.1//EN" "http://www.w3.org/Graphics/SVG/1.1/DTD/svg11.dtd">
<svg version="1.1" id="USmap" xmlns="http://www.w3.org/2000/svg" xmlns:xlink="http://www.w3.org/1999/xlink" x="0px" y="0px"
	 width="960px" height="630px" viewBox="0 0 960 630" enable-background="new 0 0 960 630" xml:space="preserve">
<g>
	<path id="HI" fill="#00BDF2" d="M233.087,519.31l1.94-3.557l2.263-0.323l0.324,0.809l-2.102,3.071H233.087z M243.272,515.591
		l6.144,2.587l2.102-0.323l1.616-3.88l-0.646-3.395l-4.203-0.485l-4.042,1.778L243.272,515.591z M273.988,525.614l3.718,5.496
		l2.425-0.323l1.132-0.484l1.455,1.293l3.718-0.162l0.97-1.454l-2.91-1.778l-1.94-3.719l-2.102-3.557l-5.82,2.91L273.988,525.614z
		 M294.195,534.506l1.293-1.94l4.688,0.97l0.647-0.484l6.143,0.646l-0.323,1.293l-2.587,1.455l-4.365-0.323L294.195,534.506z
		 M299.53,539.679l1.94,3.88l3.072-1.132l0.323-1.616l-1.617-2.102l-3.718-0.323V539.679z M306.481,538.547l2.264-2.909l4.688,2.425
		l4.365,1.131l4.365,2.749v1.939l-3.557,1.778l-4.85,0.97l-2.425-1.454L306.481,538.547z M323.133,554.066l1.617-1.293l3.395,1.616
		l7.598,3.557l3.395,2.102l1.617,2.425l1.94,4.365l4.042,2.587l-0.323,1.293l-3.88,3.233l-4.203,1.455l-1.455-0.646l-3.072,1.777
		l-2.425,3.233l-2.263,2.91l-1.778-0.162l-3.557-2.586l-0.323-4.526l0.646-2.425l-1.616-5.658l-2.102-1.778l-0.162-2.587l2.264-0.97
		l2.102-3.072l0.485-0.97l-1.617-1.778L323.133,554.066z"/>
	<path id="AK" fill="#00BDF2" d="M158.077,453.675l-0.323,85.357l1.617,0.97l3.071,0.162l1.455-1.132h2.586l0.162,2.91l6.952,6.789
		l0.485,2.587l3.395-1.939l0.646-0.162l0.323-3.071l1.455-1.617l1.132-0.161l1.94-1.455l3.071,2.102l0.647,2.91l1.94,1.131
		l1.131,2.426l3.88,1.777l3.395,5.982l2.748,3.88l2.263,2.748l1.455,3.718l5.012,1.778l5.173,2.102l0.97,4.365l0.485,3.071
		l-0.97,3.395l-1.778,2.264l-1.617-0.809l-1.455-3.071l-2.748-1.455l-1.778-1.132l-0.809,0.809l1.455,2.748l0.162,3.719
		l-1.131,0.484l-1.94-1.939l-2.102-1.293l0.485,1.616l1.293,1.778l-0.808,0.809c0,0-0.808-0.324-1.293-0.971
		c-0.485-0.646-2.102-3.395-2.102-3.395l-0.97-2.264c0,0-0.323,1.294-0.97,0.971c-0.646-0.323-1.293-1.455-1.293-1.455l1.778-1.94
		l-1.455-1.455v-5.011h-0.808l-0.809,3.395l-1.132,0.485l-0.97-3.719l-0.646-3.718l-0.809-0.485l0.323,5.658v1.132l-1.455-1.293
		l-3.557-5.982l-2.102-0.484l-0.647-3.719l-1.616-2.909l-1.617-1.132v-2.264l2.102-1.293l-0.485-0.323l-2.587,0.646l-3.395-2.425
		l-2.587-2.91l-4.85-2.586l-4.042-2.587l1.293-3.233v-1.616l-1.778,1.616l-2.91,1.132l-3.718-1.132l-5.658-2.425h-5.496
		l-0.647,0.485l-6.466-3.88l-2.102-0.323l-2.749-5.82l-3.556,0.323l-3.557,1.455l0.485,4.526l1.132-2.91l0.97,0.324l-1.455,4.364
		l3.233-2.748l0.646,1.616l-3.88,4.365l-1.293-0.323l-0.485-1.94l-1.293-0.808l-1.293,1.131l-2.748-1.778l-3.072,2.102l-1.778,2.102
		l-3.395,2.103l-4.688-0.162l-0.485-2.102l3.718-0.646v-1.294l-2.263-0.646l0.97-2.425l2.263-3.88v-1.778l0.162-0.808l4.365-2.264
		l0.97,1.293h2.749l-1.293-2.586l-3.718-0.323l-5.012,2.748l-2.425,3.395l-1.778,2.587l-1.131,2.263l-4.203,1.455l-3.072,2.587
		l-0.323,1.616l2.263,0.971l0.808,2.102l-2.748,3.232l-6.466,4.204l-7.76,4.203l-2.102,1.131l-5.335,1.132l-5.335,2.264l1.778,1.293
		l-1.455,1.455l-0.485,1.132l-2.748-0.971l-3.233,0.162l-0.808,2.264h-0.97l0.323-2.426l-3.556,1.294l-2.91,0.97l-3.395-1.293
		l-2.91,1.939h-3.233l-2.102,1.293l-1.617,0.809l-2.102-0.323l-2.586-1.132l-2.263,0.646l-0.97,0.971l-1.616-1.132v-1.94
		l3.071-1.293l6.305,0.646l4.365-1.616l2.102-2.102l2.91-0.646l1.778-0.809l2.748,0.162l1.617,1.293l0.97-0.323l2.263-2.748
		l3.071-0.971l3.395-0.646l1.293-0.323l0.646,0.485h0.809l1.293-3.719l4.042-1.455l1.94-3.718l2.263-4.526l1.617-1.455l0.323-2.587
		l-1.616,1.294l-3.395,0.646l-0.646-2.425l-1.293-0.323l-0.97,0.97l-0.162,2.91l-1.455-0.162l-1.455-5.819l-1.293,1.293
		l-1.131-0.485l-0.324-1.939l-4.042,0.161l-2.102,1.132l-2.586-0.323l1.455-1.455l0.485-2.586l-0.646-1.94l1.455-0.97l1.293-0.162
		l-0.646-1.778V526.1l-0.97-0.971l-0.808,1.455h-6.143l-1.455-1.293l-0.646-3.88l-2.102-3.557v-0.97l2.102-0.809l0.162-2.102
		l1.131-1.132l-0.808-0.484l-1.293,0.484l-1.131-2.748l0.97-5.012l4.526-3.233l2.587-1.616l1.94-3.718l2.748-1.294l2.586,1.132
		l0.324,2.425l2.425-0.323l3.233-2.425l1.617,0.646l0.97,0.646h1.617l2.263-1.293l0.808-4.365c0,0,0.323-2.909,0.97-3.395
		c0.646-0.485,0.97-0.97,0.97-0.97l-1.131-1.94l-2.587,0.809l-3.233,0.809l-1.94-0.485l-3.557-1.778l-5.012-0.161l-3.557-3.719
		l0.485-3.88l0.646-2.425l-2.102-1.778l-1.94-3.718l0.485-0.809l6.79-0.485H66.9l0.97,0.971h0.647l-0.162-1.617l3.88-0.646
		l2.587,0.323l1.455,1.132l-1.455,2.102l-0.485,1.455l2.748,1.616l5.011,1.778l1.778-0.97l-2.263-4.365l-0.97-3.233l0.97-0.808
		l-3.395-1.94l-0.485-1.132l0.485-1.616l-0.808-3.88l-2.91-4.688l-2.425-4.203l2.91-1.939h3.233l1.778,0.646l4.204-0.162
		l3.718-3.556l1.132-3.072l3.718-2.425l1.617,0.97l2.748-0.646l3.718-2.102l1.132-0.161l0.97,0.808l4.526-0.161l2.749-3.071h1.131
		l3.557,2.425l1.94,2.102l-0.485,1.131l0.646,1.132l1.617-1.616l3.88,0.323l0.323,3.718l1.94,1.455l7.113,0.646l6.305,4.203
		l1.455-0.97l5.173,2.587l2.102-0.646l1.94-0.809l4.85,1.939L158.077,453.675z M42.974,482.612l2.102,5.335l-0.162,0.97l-2.91-0.323
		l-1.778-4.041l-1.778-1.455h-2.425l-0.162-2.587l1.778-2.425l1.131,2.425l1.455,1.455L42.974,482.612z M40.387,516.076l3.718,0.809
		l3.718,0.97l0.808,0.97l-1.616,3.719l-3.072-0.162l-3.395-3.557L40.387,516.076z M19.695,502.012l1.131,2.587l1.132,1.616
		l-1.132,0.809l-2.102-3.072v-1.939H19.695z M5.954,575.083l3.395-2.264l3.395-0.97l2.587,0.323l0.485,1.616l1.94,0.485l1.94-1.94
		l-0.323-1.616l2.748-0.646l2.91,2.586l-1.131,1.778l-4.365,1.132l-2.749-0.484l-3.718-1.132l-4.365,1.455l-1.617,0.323
		L5.954,575.083z M54.937,570.556l1.616,1.94l2.102-1.617l-1.455-1.293L54.937,570.556z M57.847,573.628l1.132-2.264l2.102,0.323
		l-0.809,1.94H57.847z M81.449,571.688l1.455,1.778l0.97-1.132l-0.808-1.939L81.449,571.688z M90.179,559.24l1.131,5.819l2.91,0.809
		l5.011-2.91l4.365-2.587l-1.616-2.425l0.485-2.425l-2.102,1.293l-2.91-0.808l1.617-1.132l1.94,0.809l3.88-1.778l0.485-1.455
		l-2.425-0.809l0.808-1.939l-2.748,1.939l-4.688,3.557l-4.85,2.91L90.179,559.24z M132.534,539.355l2.425-1.455l-0.97-1.778
		l-1.778,0.97L132.534,539.355z"/>
	<path id="FL" fill="#00BDF2" d="M755.397,445.507l2.266,7.318l3.729,9.742l5.335,9.377l3.718,6.305l4.85,5.496l4.042,3.718
		l1.616,2.91l-1.131,1.293l-0.809,1.294l2.91,7.437l2.909,2.909l2.587,5.335l3.557,5.82l4.526,8.244l1.293,7.599l0.485,11.963
		l0.646,1.778l-0.323,3.395l-2.425,1.293l0.323,1.94l-0.646,1.939l0.323,2.425l0.485,1.94l-2.749,3.233l-3.071,1.454l-3.88,0.162
		l-1.455,1.616l-2.425,0.971l-1.293-0.485l-1.132-0.97l-0.323-2.91l-0.809-3.395l-3.395-5.174l-3.557-2.263l-3.88-0.323
		l-0.809,1.293l-3.071-4.365l-0.646-3.556l-2.587-4.042l-1.778-1.132l-1.616,2.102l-1.778-0.323l-2.102-5.012l-2.91-3.879
		l-2.909-5.335l-2.587-3.072l-3.557-3.718l2.102-2.425l3.233-5.496l-0.162-1.617l-4.526-0.97l-1.616,0.646l0.323,0.646l2.587,0.97
		l-1.455,4.527l-0.809,0.484l-1.778-4.041l-1.293-4.851l-0.323-2.748l1.455-4.688v-9.538l-3.072-3.719l-1.293-3.071l-5.173-1.293
		l-1.94-0.646l-1.616-2.587l-3.396-1.616l-1.131-3.396l-2.749-0.97l-2.425-3.718l-4.203-1.455l-2.91-1.455h-2.586l-4.042,0.808
		l-0.161,1.94l0.809,0.97l-0.485,1.132l-3.071-0.162l-3.719,3.557l-3.557,1.94h-3.88l-3.232,1.293l-0.323-2.748l-1.617-1.939
		l-2.91-1.132l-1.616-1.455l-8.083-3.88l-7.598-1.778l-4.365,0.646l-5.981,0.485l-5.981,2.102l-3.479,0.612l-0.237-8.05
		l-2.587-1.939l-1.778-1.778l0.323-3.071l10.185-1.294l25.543-2.909l6.789-0.646l5.437,0.28l2.586,3.88l1.455,1.454l8.099,0.516
		l10.819-0.646l21.513-1.294l5.445-0.674l4.577,0.027l0.162,2.91l3.824,0.809l0.323-4.807l-1.617-4.527l0.955-0.732l5.113,0.455
		L755.397,445.507z M767.942,577.912l2.425-0.646l1.294-0.243l1.455-2.344l2.344-1.616l1.293,0.484l1.698,0.323l0.403,1.051
		l-3.476,1.213l-4.203,1.455l-2.344,1.212L767.942,577.912z M781.441,572.9l1.213,1.051l2.748-2.102l5.335-4.203l3.718-3.88
		l2.506-6.628l0.97-1.697l0.162-3.396l-0.728,0.485l-0.971,2.829l-1.454,4.607l-3.233,5.254l-4.365,4.203l-3.395,1.939
		L781.441,572.9z"/>
	<path id="SC" fill="#00BDF2" d="M761.23,412.938l-1.776,0.97l-2.587-1.293l-0.646-2.102l-1.293-3.557l-2.264-2.102l-2.587-0.646
		l-1.616-4.851l-2.748-5.981l-4.203-1.939l-2.102-1.94l-1.294-2.586l-2.102-1.94l-2.263-1.293l-2.264-2.91l-3.071-2.263
		l-4.526-1.778l-0.485-1.455l-2.425-2.91l-0.484-1.455l-3.396-5.173l-3.395,0.162l-4.042-2.426l-1.293-1.293l-0.323-1.778
		l0.809-1.939l2.263-0.971l-0.323-2.102l6.144-2.586l9.053-4.526l7.274-0.809l16.489-0.485l2.264,1.94l1.616,3.233l4.365-0.485
		l12.609-1.455l2.91,0.809l12.609,7.598l10.108,8.122l-5.422,5.458l-2.586,6.144l-0.485,6.305l-1.616,0.808l-1.132,2.749
		l-2.425,0.646l-2.102,3.557l-2.748,2.748l-2.264,3.395l-1.616,0.809l-3.557,3.395l-2.91,0.162l0.97,3.233l-5.011,5.496
		L761.23,412.938z"/>
	<path id="GA" fill="#00BDF2" d="M689.616,357.973l-4.85,0.809l-8.406,1.132l-8.568,0.889v2.183l0.162,2.102l0.646,3.395
		l3.395,7.922l2.425,9.861l1.455,6.143l1.617,4.85l1.455,6.952l2.102,6.305l2.586,3.395l0.485,3.395l1.939,0.809l0.162,2.102
		l-1.778,4.85l-0.485,3.233l-0.161,1.94l1.616,4.364l0.323,5.335l-0.808,2.425l0.646,0.809l1.455,0.809l0.646,3.395l2.586,3.88
		l1.455,1.455l7.922,0.161l10.819-0.646l21.513-1.293l5.445-0.675l4.577,0.028l0.162,2.909l2.587,0.809l0.323-4.364l-1.617-4.527
		l1.132-1.616l5.82,0.809l4.977,0.317l-0.775-6.299l2.264-10.022l1.455-4.203l-0.485-2.587l3.335-6.244l-0.511-1.352l-1.913,0.704
		l-2.587-1.293l-0.646-2.102l-1.293-3.557l-2.264-2.102l-2.587-0.646l-1.616-4.85l-2.925-6.335l-4.203-1.94l-2.102-1.939
		l-1.294-2.587l-2.102-1.94l-2.263-1.293l-2.264-2.91l-3.071-2.263l-4.526-1.778l-0.485-1.455l-2.425-2.91l-0.485-1.455
		l-3.395-4.907l-3.395,0.161l-4.13-3.044l-1.294-1.293l-0.323-1.778l0.809-1.939l2.352-1.235L709.1,356l0.078-0.29l-5.82,0.97
		l-6.951,0.808L689.616,357.973z"/>
	<path id="AL" fill="#00BDF2" d="M625.598,466.771l-1.615-15.196l-2.748-18.753l0.161-14.064l0.809-31.038l-0.162-16.651
		l0.165-6.419l7.757-0.371l27.806-2.586l8.922-0.663l-0.147,2.183l0.162,2.102l0.646,3.396l3.395,7.921l2.425,9.861l1.455,6.144
		l1.617,4.85l1.454,6.951l2.102,6.305l2.587,3.396l0.485,3.395l1.939,0.809l0.162,2.102l-1.778,4.85l-0.485,3.233l-0.161,1.939
		l1.616,4.365l0.323,5.335l-0.809,2.425l0.647,0.808l1.454,0.809l1.036,2.535h-6.306l-6.789,0.646l-25.543,2.91l-10.411,1.407
		l-0.097,3.752l1.778,1.778l2.587,1.939l0.581,7.936l-5.542,2.573l-2.749-0.323l2.749-1.94v-0.97l-3.072-5.981l-2.263-0.646
		l-1.455,4.365l-1.293,2.748l-0.647-0.162H625.598z"/>
	<path id="NC" fill="#00BDF2" d="M832.106,298.472l1.71,4.699l3.557,6.466l2.425,2.425l0.646,2.264l-2.425,0.161l0.809,0.646
		l-0.323,4.203l-2.587,1.294l-0.646,2.102l-1.293,2.91l-3.719,1.616l-2.425-0.323l-1.455-0.162l-1.616-1.293l0.323,1.293v0.971
		h1.939l0.809,1.293l-1.939,6.305h4.203l0.646,1.616l2.263-2.263l1.294-0.485l-1.94,3.557l-3.071,4.85h-1.293l-1.132-0.484
		l-2.748,0.646l-5.174,2.425l-6.466,5.335l-3.396,4.688l-1.939,6.467l-0.485,2.425l-4.688,0.485l-5.453,1.337l-9.946-8.203
		l-12.61-7.598l-2.909-0.809l-12.609,1.455l-4.277,0.75l-1.616-3.233l-2.971-2.116l-16.489,0.484l-7.274,0.809l-9.053,4.526
		l-6.144,2.587l-1.616,0.323l-5.82,0.97l-6.951,0.809l-6.79,0.485l0.5-4.055l1.778-1.455l2.749-0.646l0.646-3.719l4.203-2.748
		l3.88-1.455l4.203-3.557l4.364-2.102l0.646-3.071l3.881-3.88l0.646-0.161c0,0,0,1.131,0.808,1.131c0.809,0,1.94,0.324,1.94,0.324
		l2.263-3.557l2.102-0.647l2.264,0.324l1.616-3.557l2.91-2.587l0.485-2.102v-3.961l4.526,0.728l7.136-1.293l15.82-1.94l17.136-2.586
		l19.922-4.001l19.733-4.165l11.364-2.796L832.106,298.472z M836.002,331.46l2.587-2.506l3.152-2.587l1.535-0.646l0.162-2.021
		l-0.646-6.144l-1.455-2.344l-0.646-1.859l0.728-0.242l2.748,5.496l0.404,4.445l-0.162,3.396l-3.395,1.536l-2.829,2.425
		l-1.132,1.212L836.002,331.46z"/>
	<path id="TN" fill="#00BDF2" d="M697.053,320.629l-51.893,5.012l-15.76,1.778l-4.621,0.513l-3.868-0.027v3.88l-8.407,0.484
		l-6.951,0.646l-11.096,0.053l-0.265,5.836l-2.139,6.275l-0.995,3.017l-1.349,4.381l-0.323,2.586l-4.041,2.264l1.455,3.557
		l-0.971,4.364l-0.968,0.79l7.256-0.194l24.087-1.939l5.335-0.162l8.083-0.485l27.806-2.586l10.171-0.809l8.42-0.97l8.406-1.132
		l4.851-0.809l-0.131-4.509l1.778-1.455l2.748-0.646l0.646-3.719l4.203-2.748l3.88-1.455l4.203-3.557l4.365-2.102l0.874-3.525
		l4.333-3.88l0.646-0.161c0,0,0,1.131,0.809,1.131s1.94,0.324,1.94,0.324l2.263-3.557l2.102-0.647l2.264,0.324l1.616-3.557
		l2.116-2.246L730.53,320l0.177-3.933l-1.483-0.288l-2.425,1.939l-7.922,0.162l-11.995,1.9L697.053,320.629z"/>
	<path id="RI" fill="#00BDF2" d="M874.07,179.823l-0.483-4.204l-0.809-4.365l-1.697-5.901l5.739-1.536l1.616,1.131l3.396,4.365
		l2.908,4.446l-2.91,1.536l-1.294-0.162l-1.132,1.778l-2.425,1.94L874.07,179.823z"/>
	<path id="CT" fill="#00BDF2" d="M873.193,180.05l-0.628-4.204l-0.808-4.365l-1.617-5.981l-4.151,0.905l-21.824,4.769l0.646,3.314
		l1.455,7.275v8.083l-1.132,2.263l1.832,2.109l4.956-3.401l3.556-3.233l1.94-2.102l0.809,0.647l2.748-1.455l5.173-1.132
		L873.193,180.05z"/>
	<path id="MA" fill="#00BDF2" d="M899.977,173.851l2.173-0.686l0.457-1.715l1.028,0.114l1.029,2.286l-1.258,0.458l-3.887,0.114
		L899.977,173.851z M890.604,174.651l2.286-2.629h1.601l1.829,1.486l-2.4,1.029l-2.172,1.029L890.604,174.651z M855.805,152.663
		l17.459-4.203l2.264-0.646l2.102-3.233l3.736-1.663l2.89,4.413l-2.425,5.173l-0.324,1.455l1.94,2.586l1.132-0.809h1.778
		l2.263,2.587l3.88,5.981l3.557,0.485l2.264-0.97l1.778-1.778l-0.809-2.749l-2.102-1.617l-1.455,0.809l-0.97-1.293l0.484-0.485
		l2.102-0.162l1.778,0.808l1.94,2.425l0.97,2.91l0.323,2.425l-4.203,1.455l-3.88,1.94l-3.88,4.526l-1.939,1.455v-0.97l2.425-1.455
		l0.484-1.778l-0.808-3.072l-2.91,1.455l-0.809,1.455l0.485,2.263l-2.066,1l-2.747-4.527l-3.395-4.365l-2.071-1.812l-6.533,1.876
		l-5.092,1.051l-21.824,4.769l-0.402-4.944l0.646-10.589l5.173-0.889L855.805,152.663z"/>
	<path id="ME" fill="#00BDF2" d="M923.215,77.331l1.939,2.102l2.264,3.718v1.94l-2.102,4.688l-1.94,0.647l-3.395,3.071l-4.85,5.497
		c0,0-0.646,0-1.293,0c-0.647,0-0.971-2.102-0.971-2.102l-1.778,0.162l-0.97,1.455l-2.425,1.455l-0.97,1.455l1.616,1.455
		l-0.484,0.646l-0.485,2.749l-1.94-0.162v-1.617l-0.323-1.293l-1.454,0.323l-1.778-3.233l-2.102,1.293l1.293,1.455l0.323,1.132
		l-0.809,1.293l0.323,3.072l0.162,1.617l-1.616,2.586l-2.91,0.485l-0.323,2.91l-5.335,3.071l-1.293,0.485l-1.617-1.455l-3.071,3.556
		l0.97,3.233l-1.455,1.293l-0.161,4.365l-1.124,6.259l-2.462-1.156l-0.485-3.072l-3.879-1.131l-0.324-2.749l-7.274-23.441
		l-4.198-13.64l1.42-0.118l1.514,0.41v-2.587l0.809-5.496l2.587-4.688l1.455-4.042l-1.94-2.425v-5.981l0.809-0.97l0.809-2.749
		l-0.162-1.455l-0.161-4.85l1.778-4.85l2.909-8.892l2.102-4.203h1.294l1.293,0.162v1.132l1.293,2.263l2.748,0.646l0.809-0.808v-0.97
		l4.042-2.91l1.778-1.778l1.454,0.162l5.981,2.425l1.94,0.97l9.053,29.907h5.981l0.809,1.94l0.161,4.85l2.91,2.263h0.809
		l0.161-0.485l-0.484-1.132L923.215,77.331z M902.283,107.478l1.535-1.536l1.375,1.051l0.565,2.425l-1.697,0.889L902.283,107.478z
		 M908.992,101.578l1.778,1.859c0,0,1.293,0.081,1.293-0.242s0.242-2.021,0.242-2.021l0.89-0.808l-0.809-1.778l-2.021,0.728
		L908.992,101.578z"/>
	<path id="NH" fill="#00BDF2" d="M880.799,142.425l0.869-1.077l1.09-3.291l-2.543-0.914l-0.484-3.071l-3.88-1.132l-0.323-2.748
		l-7.275-23.441l-4.602-14.543l-0.896-0.005l-0.646,1.617l-0.646-0.485l-0.971-0.97l-1.455,1.94l-0.048,5.032l0.312,5.667
		l1.939,2.748v4.042l-3.718,5.063l-2.587,1.131v1.132l1.132,1.778v8.568l-0.809,9.215l-0.161,4.85l0.97,1.293l-0.161,4.526
		l-0.485,1.778l1.455,0.886l16.39-4.69l2.264-0.646l1.534-2.552L880.799,142.425z"/>
	<path id="VT" fill="#00BDF2" d="M844.344,153.727l-0.809-5.658l-2.391-9.972l-0.646-0.323l-2.91-1.293l0.809-2.91l-0.809-2.102
		l-2.7-4.64l0.97-3.88l-0.808-5.173l-2.425-6.466l-0.806-4.922l26.247-6.748l0.324,5.819l1.94,2.749v4.042l-3.719,4.042
		l-2.586,1.131v1.132l1.132,1.778v8.568l-0.809,9.215l-0.162,4.85l0.971,1.293l-0.162,4.526l-0.485,1.778l0.661,1.567l-6.951,1.374
		L844.344,153.727z"/>
	<path id="NY" fill="#00BDF2" d="M828.614,189.422l-1.132-0.97l-2.586-0.162l-2.264-1.94l-1.631-6.129l-3.458,0.091l-2.444-2.708
		l-19.385,4.382l-43.002,8.73l-7.529,1.228l-0.738-6.468l1.428-1.125l1.293-1.132l0.971-1.617l1.778-1.131l1.939-1.778l0.485-1.617
		l2.102-2.748l1.132-0.97l-0.162-0.97l-1.293-3.072l-1.778-0.162l-1.94-6.143l2.91-1.778l4.365-1.455l4.041-1.293l3.233-0.485
		l6.305-0.161l1.939,1.293l1.617,0.162l2.102-1.293l2.587-1.131l5.173-0.485l2.102-1.778l1.778-3.233l1.616-1.94h2.102l1.94-1.131
		l0.161-2.263l-1.455-2.102l-0.323-1.455l1.132-2.102v-1.455h-1.778l-1.778-0.808l-0.808-1.132l-0.162-2.586l5.819-5.497
		l0.647-0.808l1.454-2.91l2.91-4.526l2.748-3.718l2.102-2.425l2.415-1.826l3.082-1.246l5.496-1.293l3.233,0.162l4.526-1.455
		l7.565-2.071l0.52,4.98l2.425,6.466l0.809,5.173l-0.97,3.88l2.586,4.527l0.809,2.102l-0.809,2.91l2.91,1.293l0.646,0.323
		l3.072,10.993l-0.537,5.06l-0.484,10.831l0.808,5.497l0.809,3.557l1.455,7.274v8.083l-1.132,2.263l1.84,1.993l0.796,1.678
		l-1.939,1.778l0.323,1.293l1.293-0.323l1.455-1.293l2.264-2.586l1.131-0.647l1.617,0.647l2.263,0.162l7.922-3.88l2.91-2.748
		l1.293-1.455l4.203,1.617l-3.395,3.556l-3.88,2.91l-7.113,5.335l-2.587,0.97l-5.819,1.94l-4.042,1.131l-1.175-0.533l-0.244-3.688
		l0.485-2.748l-0.161-2.102l-2.813-1.699l-4.527-0.97l-3.88-1.131L828.614,189.422z"/>
	<path id="NJ" fill="#00BDF2" d="M828.16,190.33l-2.102,2.425v3.072l-1.939,3.072l-0.162,1.616l1.293,1.293l-0.161,2.425
		l-2.264,1.132l0.809,2.748l0.162,1.132l2.748,0.323l0.97,2.586l3.557,2.425l2.425,1.617v0.809l-3.233,3.071l-1.616,2.263
		l-1.455,2.749l-2.264,1.293l-1.212,0.728l-0.242,1.212l-0.609,2.607l1.092,2.244l3.233,2.91l4.85,2.264l4.042,0.646l0.161,1.455
		l-0.808,0.97l0.323,2.748h0.808l2.102-2.425l0.809-4.85l2.748-4.042l3.072-6.466l1.131-5.497l-0.646-1.132l-0.161-9.376
		l-1.617-3.395l-1.132,0.808l-2.748,0.324l-0.484-0.485l1.131-0.97l2.102-1.94l0.063-1.094l-0.385-3.434l0.485-2.748l-0.162-2.102
		l-2.586-1.132l-4.526-0.97l-3.88-1.132L828.16,190.33z"/>
	<path id="PA" fill="#00BDF2" d="M822.207,226.46l1.132-0.647l2.263-0.612l1.455-2.748l1.617-2.263l3.232-3.072v-0.808l-2.425-1.617
		l-3.557-2.425l-0.97-2.587l-2.748-0.323l-0.162-1.131l-0.808-2.749l2.263-1.131l0.162-2.425l-1.294-1.293l0.162-1.617l1.939-3.072
		v-3.071l2.345-2.425l0.214-1.083l-2.586-0.162l-2.264-1.94l-2.425-5.335l-3.005-0.931l-2.33-2.141l-18.591,4.042l-43.002,8.73
		l-8.891,1.455l-0.496-7.084l-5.487,5.63l-1.294,0.485l-4.202,3.009l2.911,19.137l2.481,9.729l3.572,19.262l3.269-0.638
		l11.944-1.503l37.927-7.665l14.876-2.823l8.3-1.623l0.268-0.238l2.102-1.617L822.207,226.46z"/>
	<path id="DE" fill="#00BDF2" d="M822.353,230.423l0.589-2.103l0.021-1.205l-1.269-0.088l-2.102,1.616l-1.455,1.455l1.455,4.203
		l2.263,5.658l2.102,9.7l1.617,6.305l5.011-0.162l6.143-1.212l-2.265-7.355l-0.97,0.485l-3.557-2.425l-1.778-4.688l-1.939-3.557
		l-2.264-0.97l-2.102-3.556L822.353,230.423z"/>
	<path id="MD" fill="#00BDF2" d="M836.953,255.305l-6.141,1.292l-5.806,0.162l-1.844-7.099l-2.102-9.7l-2.264-5.658l-1.288-4.398
		l-7.506,1.622l-14.877,2.823l-37.451,7.551l1.132,5.011l0.97,5.658l0.323-0.323l2.102-2.425l2.264-2.618l2.425-0.616l1.455-1.455
		l1.777-2.587l1.294,0.647l2.909-0.324l2.587-2.102l2.007-1.453l1.846-0.485l1.645,1.13l2.909,1.455l1.94,1.778l1.212,1.536
		l4.123,1.697v2.91l5.496,1.293l1.145,0.542l1.412-2.028l2.882,1.97l-1.278,2.482l-0.766,3.986l-1.778,2.586v2.102l0.647,1.778
		l5.063,1.355l4.312-0.062l3.071,0.97l2.102,0.323l0.97-2.102l-1.455-2.102v-1.778l-2.425-2.102l-2.102-5.497l1.293-5.335
		l-0.161-2.102l-1.293-1.293c0,0,1.454-1.617,1.454-2.264c0-0.646,0.485-2.102,0.485-2.102l1.94-1.293l1.939-1.617l0.485,0.97
		l-1.455,1.616l-1.294,3.718l0.324,1.132l1.777,0.323l0.485,5.497l-2.102,0.97l0.323,3.557l0.485-0.162l1.132-1.94l1.616,1.778
		l-1.616,1.293l-0.324,3.395l2.587,3.395l3.88,0.485l1.617-0.808l3.236,4.183l1.358,0.537l6.653-2.797l2.008-4.023L836.953,255.305z
		 M820.321,264.29l1.131,2.506l0.162,1.778l1.132,1.859c0,0,0.889-0.889,0.889-1.212s-0.728-3.072-0.728-3.072l-0.728-2.344
		L820.321,264.29z"/>
	<path id="WV" fill="#00BDF2" d="M756.561,241.967l1.112,4.944l1.083,6.907l3.56-2.749l2.264-3.071l2.538-0.616l1.455-1.455
		l1.778-2.586l1.18,0.646l2.91-0.323l2.586-2.102l2.007-1.453l1.846-0.485l1.304,1.016l2.229,1.115l1.939,1.778l1.374,1.293
		l-0.143,4.671l-5.658-3.072l-4.526-1.778l-0.162,5.335l-0.484,2.102l-1.617,2.748l-0.646,1.617l-3.071,2.425l-0.485,2.264
		l-3.395,0.323l-0.323,3.071l-1.132,5.497h-2.587l-1.293-0.808l-1.616-2.749l-1.778,0.162l-0.323,4.365l-2.102,6.628l-5.012,10.831
		l0.809,1.293l-0.162,2.748l-2.102,1.94l-1.455-0.323l-3.233,2.425l-2.586-0.97l-1.778,4.688c0,0-3.719,0.809-4.365,0.97
		s-2.425-1.293-2.425-1.293l-2.425,2.263l-2.587,0.647l-2.91-0.809l-1.293-1.293l-2.192-3.023l-3.143-1.988l-2.586-2.748
		l-2.91-3.718l-0.646-2.263l-2.587-1.455l-0.809-1.617l-0.242-5.254l2.183-0.081l1.939-0.808l0.162-2.748l1.616-1.455l0.162-5.012
		l0.97-3.88l1.293-0.646l1.294,1.132l0.484,1.778l1.778-0.97l0.485-1.617l-1.132-1.778v-2.425l0.97-1.293l2.264-3.395l1.293-1.455
		l2.102,0.485l2.264-1.617l3.071-3.395l2.264-3.88l0.323-5.658l0.484-5.012v-4.688l-1.131-3.071l0.97-1.455l1.283-1.293
		l3.491,19.827l4.631-0.751L756.561,241.967z"/>
	<path id="KY" fill="#00BDF2" d="M721.783,297.818l-2.325,2.683l-4.203,3.556l-4.299,5.903l-1.778,1.778v2.102l-3.88,2.102
		l-5.658,3.395l-3.52,0.385l-51.868,4.898l-15.76,1.778l-4.621,0.513l-3.868-0.027l-0.227,4.22l-8.18,0.145l-6.951,0.647
		l-10.431,0.205l1.912-0.222l2.181-1.762l2.058-1.144l0.229-3.2l0.914-1.829l-1.606-2.539l0.802-1.907l2.264-1.778l2.102-0.646
		l2.748,1.294l3.557,1.293l1.131-0.323l0.162-2.264l-1.293-2.425l0.323-2.263l1.939-1.455l2.587-0.646l1.616-0.647l-0.808-1.778
		l-0.647-1.939l1.132-0.808l1.051-3.314l2.991-1.697l5.819-0.97l3.557-0.485l1.455,1.94l1.778,0.809l1.778-3.233l2.91-1.455
		l1.939,1.617l0.809,1.132l2.102-0.485l-0.162-3.395l2.91-1.617l1.132-0.808l1.132,1.616h4.688l0.809-2.102l-0.323-2.263l2.91-3.557
		l4.688-3.88l0.485-4.526l2.748-0.323l3.88-1.778l2.748-1.94l-0.323-1.94l-1.455-1.455l0.566-2.182l4.122-0.243l2.425-0.808
		l2.91,1.617l1.616,4.365l5.82,0.323l1.778,1.778l2.102,0.162l2.425-1.455l3.071,0.485l1.293,1.455l2.748-2.586l1.778-1.293h1.617
		l0.646,2.749l1.778,0.97l2.422,2.215l0.161,5.496l0.809,1.617l2.587,1.455l0.646,2.263l2.91,3.718l2.586,2.748L721.783,297.818z"/>
	<path id="OH" fill="#00BDF2" d="M731.436,195.008l-6.093,4.053l-3.88,2.263l-3.396,3.718l-4.041,3.88l-3.233,0.808l-2.91,0.485
		l-5.496,2.586l-2.102,0.162l-3.395-3.072l-5.174,0.647l-2.586-1.455l-2.382-1.351l-4.893,0.703l-10.185,1.617l-7.76,1.212
		l1.294,14.63l1.778,13.741l2.586,23.441l0.566,4.831l4.122-0.129l2.425-0.809l3.364,1.503l2.07,4.365l5.139-0.017l1.892,2.119
		l1.762-0.065l2.538-1.341l2.504,0.372l1.975,1.455l1.727-2.132l2.346-1.293l2.07-0.681l0.646,2.748l1.778,0.97l3.476,2.344
		l2.183-0.081l1.146-1.149l-0.065-1.387l1.617-1.455l0.162-5.012l0.97-3.88l1.52-1.441l1.521,0.905l0.825,1.211l1.211-0.176
		l-0.423-2.411l-0.563-0.643v-2.425l0.97-1.293l2.263-3.395l1.294-1.455l2.102,0.485l2.263-1.617l3.072-3.395l2.263-3.88l0.21-5.431
		l0.485-5.011v-4.688l-1.132-3.071l0.97-1.455l0.921-0.955l-1.405-9.843L731.436,195.008z"/>
	<path id="MI" fill="#00BDF2" d="M581.619,82.059l1.829-2.058l2.172-0.8l5.373-3.887l2.286-0.571l0.457,0.457l-5.144,5.144
		l-3.315,1.943l-2.058,0.915L581.619,82.059z M667.794,114.187l0.646,2.506l3.233,0.162l1.293-1.212c0,0-0.081-1.455-0.404-1.617
		s-1.616-1.859-1.616-1.859l-2.183,0.242l-1.616,0.162l-0.323,1.132L667.794,114.187z M697.86,177.237l-3.233-8.245l-2.264-9.053
		l-2.425-3.233l-2.586-1.778l-1.617,1.132l-3.88,1.778l-1.939,5.011l-2.748,3.718l-1.132,0.646l-1.455-0.646
		c0,0-2.587-1.455-2.425-2.102c0.161-0.646,0.484-5.012,0.484-5.012l3.396-1.293l0.808-3.395l0.647-2.586l2.425-1.617l-0.323-10.023
		l-1.617-2.263l-1.293-0.809l-0.809-2.102l0.809-0.808l1.616,0.323l0.162-1.617l-2.425-2.263l-1.294-2.586h-2.586l-4.526-1.455
		l-5.497-3.395h-2.748l-0.646,0.647l-0.97-0.485l-3.072-2.263l-2.909,1.778l-2.91,2.263l0.323,3.557l0.97,0.323l2.102,0.485
		l0.485,0.809l-2.587,0.808l-2.586,0.324l-1.455,1.778l-0.323,2.102l0.323,1.617l0.323,5.497l-3.557,2.102l-0.646-0.162v-4.203
		l1.293-2.425l0.646-2.425l-0.808-0.808l-1.94,0.808l-0.97,4.204l-2.748,1.131l-1.778,1.94l-0.162,0.97l0.646,0.809l-0.646,2.586
		l-2.263,0.485v1.132l0.808,2.425l-1.131,6.143l-1.617,4.042l0.646,4.688l0.485,1.131l-0.809,2.425l-0.323,0.809l-0.323,2.748
		l3.557,5.981l2.91,6.466l1.455,4.85l-0.809,4.688l-0.97,5.981l-2.425,5.173l-0.324,2.748l-3.259,3.085l4.409-0.162l21.418-2.264
		l7.278-0.987l0.097,1.667l6.852-1.212l10.298-1.503l3.854-0.461l0.138-0.587l0.162-1.455l2.102-3.718l2-1.738l-0.222-5.052
		l1.597-1.597l1.091-0.343l0.222-3.557l1.536-3.031l1.051,0.606l0.162,0.646l0.808,0.162l1.94-0.97L697.86,177.237z
		 M567.492,111.213l0.716-0.581l2.749-0.809l3.556-2.263v-0.97l0.647-0.646l5.981-0.97l2.425-1.94l4.364-2.102l0.162-1.293
		l1.939-2.91l1.778-0.808l1.294-1.778l2.263-2.264l4.365-2.425l4.688-0.485l1.132,1.132l-0.323,0.97l-3.718,0.97l-1.455,3.071
		l-2.264,0.809l-0.484,2.425l-2.425,3.233l-0.324,2.587l0.809,0.485l0.97-1.132l3.557-2.91l1.294,1.293h2.263l3.233,0.97
		l1.455,1.132l1.455,3.071l2.748,2.748l3.88-0.162l1.455-0.97l1.616,1.293l1.617,0.485l1.293-0.809h1.132l1.616-0.97l4.042-3.557
		l3.395-1.131l6.628-0.323l4.526-1.94l2.587-1.293l1.455,0.162v5.658l0.484,0.323l2.91,0.808l1.939-0.485l6.144-1.617l1.132-1.131
		l1.455,0.485v6.951l3.232,3.072l1.294,0.646l1.293,0.97l-1.293,0.323l-0.809-0.323l-3.718-0.485l-2.102,0.647l-2.264-0.162
		l-3.233,1.455h-1.778l-5.819-1.293l-5.173,0.162l-1.94,2.586l-6.951,0.647l-2.425,0.808l-1.132,3.071l-1.293,1.132l-0.485-0.162
		l-1.455-1.617l-4.526,2.425h-0.646l-1.132-1.617l-0.809,0.162l-1.939,4.365l-0.97,4.042l-3.182,7l-1.177-1.034l-1.371-1.031
		l-1.941-10.288l-3.544-1.37l-2.053-2.286l-12.12-2.743l-2.855-1.03l-8.23-2.173l-7.891-1.143L567.492,111.213z"/>
	<path id="WY" fill="#00BDF2" d="M354.251,143.776l-10.549-0.807l-32.088-3.295l-16.232-2.058l-28.349-4.115l-19.89-2.972
		l-1.419,11.176l-3.839,24.26l-5.258,30.407l-1.531,10.516l-1.669,11.889l6.523,0.928l25.879,2.5l20.569,2.307l36.784,4.115
		l23.821,2.86l4.504-44.192l1.44-25.377L354.251,143.776z"/>
	<path id="MT" fill="#00BDF2" d="M356.671,122.274l0.647-11.151l2.259-24.787c0.457-5.029,1.083-8.472,1.372-15.41l0.94-14.552
		l-30.674-2.808l-29.261-3.556l-29.261-4.042l-32.332-5.335l-18.429-3.395l-32.724-6.933l-4.479,21.348l3.429,7.544l-1.372,4.572
		l1.829,4.573l3.201,1.372l4.621,10.77l2.695,3.177l0.457,1.143l3.429,1.143l0.458,2.058l-7.087,17.604v2.515l2.515,3.201h0.914
		l4.801-2.972l0.686-1.143l1.6,0.686l-0.229,5.258l2.744,12.574l2.972,2.515l0.915,0.686l1.829,2.286l-0.457,3.429l0.686,3.43
		l1.143,0.914l2.287-2.286h2.743l3.201,1.601l2.515-0.915h4.115l3.658,1.6l2.744-0.457l0.457-2.972l2.972-0.686l1.372,1.372
		l0.458,3.201l1.779,1.365l1.534-11.565l20.692,2.972l28.188,3.955l16.553,1.897l31.446,3.456l10.99,1.524l1.052-15.427
		L356.671,122.274z"/>
	<path id="ID" fill="#00BDF2" d="M162.12,180.959c-22.611-4.343-14.147-2.847-21.141-4.351l4.427-17.502l4.344-17.718l1.372-4.229
		l2.515-5.944l-1.257-2.286l-2.515,0.114l-0.8-1.029l0.457-1.143l0.343-3.086l4.458-5.487l1.829-0.458l1.144-1.143l0.571-3.201
		l0.915-0.686l3.887-5.83l3.886-4.344l0.229-3.772l-3.43-2.629l-1.314-4.401l0.4-9.66l3.658-16.46l4.458-20.805l3.772-13.489
		l0.762-3.803l12.996,2.528l-4.158,21.508l2.948,7.705l-1.051,4.572l1.989,4.573l3.201,1.692l4.46,9.807l2.695,3.818l0.618,1.143
		l3.429,1.143l0.458,2.539l-6.927,16.802l0.321,3.317l2.675,2.879l1.877,0.481l4.801-3.614l0.365-0.501l0.156,0.847l0.253,4.135
		l2.583,12.895l3.454,2.676l0.433,0.846l2.15,2.447l-0.778,2.787l0.686,3.75l1.945,0.915l2.126-1.645l2.583-0.481l3.361,1.601
		l2.515-0.594l3.794-0.16l3.979,1.6l2.744-0.297l0.938-2.33l2.491-1.649l0.73,1.693l0.618,2.238l2.308,2.539l-3.772,23.981
		l-5.144,29.009l-4.159-0.319l-8.184-1.532l-9.807-1.829l-12.163-2.378l-12.528-2.504l-8.483-1.84l-9.259-1.668L162.12,180.959z"/>
	<path id="WA" fill="#00BDF2" d="M93.573,6.362l4.365,1.455l9.7,2.748l8.568,1.94l20.046,5.658l22.956,5.658l15.161,3.395
		l-1.004,3.884l-4.093,13.81l-4.458,20.805l-3.177,16.14l-0.352,9.379l-13.181-3.894l-15.57-3.383l-13.667,0.596l-1.581-1.532
		l-5.326,1.897l-3.977-0.25l-2.721-1.761l-1.579,0.525l-4.205-0.229l-1.875-1.372l-4.777-1.737l-1.442-0.207l-4.986-1.326
		l-1.783,1.508l-5.691-0.343l-4.821-3.794l0.205-0.8l0.068-7.934l-2.125-3.887l-4.115-0.732l-0.365-2.354l-2.514-0.627l-2.882-0.535
		l-1.778,0.97l-2.264-2.91l0.324-2.91l2.748-0.323l1.617-4.042l-2.587-1.132l0.162-3.718l4.365-0.646l-2.749-2.749l-1.455-7.113
		l0.646-2.91v-7.922l-1.778-3.233l2.263-9.376l2.102,0.485l2.425,2.91l2.749,2.586l3.233,1.94l4.527,2.102l3.071,0.647l2.91,1.455
		l3.395,0.97l2.263-0.162v-2.425l1.293-1.131l2.102-1.293l0.323,1.132l0.324,1.778l-2.264,0.485l-0.323,2.102l1.778,1.455
		l1.132,2.425l0.646,1.94l1.455-0.162l0.162-1.293l-0.97-1.293l-0.485-3.233l0.808-1.778l-0.646-1.455v-2.263l1.778-3.557
		l-1.132-2.586l-2.425-4.85l0.323-0.809L93.573,6.362z M84.117,12.341l2.021-0.162l0.485,1.374l1.536-1.617h2.344l0.809,1.536
		l-1.536,1.698l0.646,0.808l-0.728,2.021l-1.374,0.404c0,0-0.889,0.081-0.889-0.242s1.455-2.586,1.455-2.586l-1.698-0.566
		l-0.323,1.455l-0.728,0.647l-1.536-2.263L84.117,12.341z"/>
	<path id="TX" fill="#00BDF2" d="M357.053,333.374l22.691,1.086l31.093,1.143l-2.335,23.456l-0.297,18.153l0.068,2.082l4.344,3.818
		l1.737,0.822l1.809,0.253l0.687-1.255l0.89,0.866l1.737,0.48l1.604-0.729l1.139,0.409l-0.297,3.405l4.275,1.03l2.676,0.822
		l3.954,0.525l2.194,1.829l3.249-1.576l2.787,0.365l2.034,2.787l1.074,0.321l-0.16,1.965l3.089,1.168l2.768-1.805l1.508,0.364
		l2.354,0.161l0.433,1.872l4.641,1.99l2.656-0.205l1.989-4.115h0.341l1.143,1.897l4.437,1.007l3.337,1.211l3.293,0.754l2.15-0.754
		l0.846-2.515h3.702l1.897,0.754l3.064-1.576h0.661l0.365,1.119h4.275l2.403-1.255l1.668,0.297l1.416,1.872l2.88,1.669l3.521,1.075
		l2.743,1.418l2.447,1.622l3.293-0.891l1.94,0.983l0.512,10.139l0.335,9.703l0.686,9.533l0.525,4.047l2.676,4.597l1.075,4.067
		l3.862,6.289l0.55,2.88l0.525,1.007l-0.687,7.496l-2.65,4.388l0.958,2.86l-0.365,2.515l-0.846,7.316l-1.372,2.719l0.604,4.387
		l-5.665,1.585l-9.861,4.526l-0.97,1.939l-2.587,1.94l-2.102,1.455l-1.293,0.809l-5.658,5.334l-2.748,2.102l-5.335,3.233
		l-5.658,2.425l-6.305,3.396l-1.778,1.454l-5.82,3.557l-3.395,0.647l-3.88,5.496l-4.041,0.323l-0.971,1.939l2.264,1.94l-1.455,5.496
		l-1.293,4.526l-1.132,3.88l-0.809,4.527l0.809,2.425l1.778,6.951l0.97,6.143l1.778,2.749l-0.97,1.454l-3.072,1.94l-5.657-3.88
		l-5.497-1.132l-1.293,0.485l-3.233-0.646l-4.203-3.072l-5.173-1.131l-7.599-3.396l-2.102-3.88l-1.293-6.466l-3.233-1.94
		l-0.646-2.263l0.646-0.647l0.323-3.395l-1.293-0.646l-0.646-0.97l1.293-4.365l-1.616-2.263l-3.233-1.294l-3.395-4.364l-3.557-6.629
		l-4.203-2.586l0.161-1.94l-5.334-12.286l-0.809-4.203l-1.778-1.939l-0.162-1.455l-5.981-5.335l-2.586-3.071v-1.132l-2.586-2.102
		l-6.79-1.132l-7.436-0.646l-3.072-2.263l-4.526,1.777l-3.557,1.455l-2.263,3.233l-0.97,3.719l-4.365,6.143l-2.425,2.425
		l-2.586-0.97l-1.778-1.132l-1.94-0.646l-3.88-2.264v-0.646l-1.778-1.939l-5.173-2.102l-7.437-7.76l-2.263-4.688v-8.083
		l-3.233-6.466l-0.485-2.749l-1.617-0.97l-1.132-2.102l-5.011-2.102l-1.293-1.616l-7.113-7.922l-1.293-3.233l-4.688-2.263
		l-1.455-4.365l-2.586-2.91l-1.94-0.484l-0.649-4.678l8.002,0.686l29.035,2.744l29.035,1.6l2.287-23.776l3.886-55.555l1.601-18.748
		l1.372,0.029 M457.23,567.323l-0.566-7.113l-2.748-7.194l-0.565-7.032l1.535-8.244l3.314-6.871l3.476-5.415l3.152-3.557
		l0.646,0.242l-4.769,6.628l-4.365,6.548l-2.021,6.628l-0.323,5.173l0.889,6.144l2.587,7.193l0.485,5.174l0.161,1.454
		L457.23,567.323z"/>
	<path id="CA" fill="#00BDF2" d="M136.741,386.754l3.815-0.489l1.486-2.011l0.732-1.941l-3.176-0.09l-1.099-1.764l0.778-1.715
		l-0.046-6.15l2.218-1.328l2.697-2.583l0.411-4.915l1.646-3.497l1.943-2.104l3.269-1.714l1.279-0.73l0.756-1.483l-0.868-0.893
		l-0.961-1.511l-0.937-5.348l-2.904-5.236l0.097-2.787l-2.201-3.248l-14.999-23.229l-19.433-28.714l-22.427-33.034l-12.702-19.545
		l1.797-7.208l6.812-25.949l8.116-31.436l-12.365-3.337l-13.489-3.43l-12.574-4.115l-7.544-2.058l-11.431-2.972l-7.051-2.412
		l-1.58,4.725l-0.162,7.437l-5.173,11.801l-3.072,2.587l-0.323,1.131l-1.778,0.809l-1.455,4.203l-0.809,3.233l2.749,4.203
		l1.616,4.204l1.132,3.556l-0.323,6.467l-1.778,3.071l-0.646,5.82l-0.97,3.718l1.778,3.88l2.748,4.526l2.264,4.85l1.293,4.042
		l-0.323,3.233l-0.323,0.485v2.102l5.658,6.305l-0.485,2.425l-0.646,2.263l-0.646,1.94l0.162,8.245l2.102,3.718l1.94,2.586
		l2.748,0.485l0.97,2.749l-1.132,3.557l-2.102,1.616h-1.131l-0.809,3.88l0.485,2.91l3.233,4.365l1.617,5.334l1.455,4.688
		l1.293,3.071l3.395,5.82l1.455,2.586l0.485,2.91l1.617,0.97v2.425l-0.809,1.94l-1.778,7.113l-0.485,1.939l2.425,2.748l4.203,0.485
		l4.527,1.778l3.88,2.102h2.91l2.91,3.071l2.586,4.85l1.131,2.264l3.88,2.102l4.85,0.809l1.455,2.102l0.646,3.232l-1.455,0.647
		l0.323,0.97l3.233,0.809l2.748,0.161l2.91,4.688l3.88,4.203l0.808,2.263l2.586,4.203l0.324,3.233v9.377l0.485,1.778l10.023,1.454
		l19.723,2.749L136.741,386.754z M48.793,337.037l1.293,1.535l-0.162,1.294l-3.233-0.081l-0.566-1.213l-0.646-1.454L48.793,337.037z
		 M50.733,337.037l1.212-0.646l3.557,2.102l3.072,1.212l-0.889,0.646l-4.526-0.242l-1.617-1.616L50.733,337.037z M71.426,356.841
		l1.778,2.344l0.808,0.97l1.536,0.566l0.566-1.455l-0.97-1.778l-2.667-2.021l-1.051,0.162V356.841z M69.971,365.489l1.778,3.152
		l1.212,1.94l-1.455,0.242l-1.293-1.213c0,0-0.728-1.455-0.728-1.858c0-0.404,0-2.183,0-2.183L69.971,365.489z"/>
	<path id="AZ" fill="#00BDF2" d="M137.747,387.5l-2.627,2.159l-0.323,1.454l0.485,0.971l18.914,10.669l12.125,7.599l14.711,8.567
		l16.812,10.023l12.286,2.425l25.128,2.705l2.531-12.507l3.753-27.243l6.965-52.881l4.257-30.966l-24.597-3.679l-27.206-4.573
		l-33.429-6.318l-2.922,18.092l-0.458,0.457l-1.714,2.63l-2.515-0.114l-1.257-2.744l-2.744-0.343l-0.915-1.143h-0.914l-0.915,0.571
		l-1.943,1.028l-0.114,6.974l-0.229,1.715l-0.571,12.574l-1.486,2.172l-0.571,3.314l2.744,4.916l1.257,5.829l0.8,1.029l1.029,0.571
		l-0.115,2.286l-1.6,1.372l-3.429,1.715l-1.943,1.943l-1.486,3.657l-0.571,4.916l-2.858,2.743l-2.058,0.686l-0.114,5.83
		l-0.458,1.715l0.458,0.8l3.658,0.572l-0.571,2.743l-1.486,2.172L137.747,387.5z"/>
	<path id="NV" fill="#00BDF2" d="M140.658,177.572l20.98,4.511l9.716,1.943l9.259,1.829l6.615,1.633l-0.559,5.865l-3.543,17.329
		l-4.093,19.98l-1.943,9.719l-2.172,13.282l-3.155,16.415l-3.521,15.685l-1.968,10.181l-2.466,16.771l-0.457,1.099l-1.073,2.469
		l-1.873-0.114l-1.097-2.743l-2.743-0.504l-1.396-0.982l-2.038,0.321l-0.915,0.731l-1.302,1.35l-0.435,6.974l-0.55,1.715
		l-0.411,12.093l-1.322,1.714l-1.876-2.262l-14.518-22.748l-19.433-29.035l-22.748-33.836L77.24,230.373l1.636-6.566l6.973-25.949
		l7.888-31.348l33.607,8.143l13.717,2.972"/>
	<path id="UT" fill="#00BDF2" d="M252.971,309.307l-24.643-3.473l-26.564-4.893l-33.827-6.02l1.588-9.157l3.201-15.203l3.315-16.575
		l2.172-13.603l1.943-8.917l3.772-20.461l3.543-17.49l1.115-5.573l12.717,2.258l12.002,2.058l10.288,1.829l8.345,1.372l3.678,0.479
		l-1.485,10.63l-2.312,13.173l7.808,0.928l16.407,1.805l8.211,0.856l-2.13,21.968l-3.201,22.566l-3.753,27.826l-1.666,11.108
		L252.971,309.307z"/>
	<path id="CO" fill="#00BDF2" d="M378.621,256.796l1.44-21.282l-32.095-3.064l-24.463-2.7l-37.265-4.115l-20.69-2.515l-2.629,22.176
		l-3.201,22.405l-3.753,27.987l-1.505,11.108l-0.25,2.763l33.926,3.795l37.741,4.267l31.96,3.165l16.608,0.847"/>
	<path id="NM" fill="#00BDF2" d="M282.724,431.045l-0.65-6.123l8.644,0.525l29.516,3.064l28.393,1.439l1.965-22.332l3.726-55.876
		l1.119-19.39l2.014,0.35l-0.014-11.074l-32.204-2.403l-36.938-4.427l-34.465-4.115l-4.2,30.758l-6.965,53.202l-3.752,26.922
		l-2.049,13.309l15.46,1.989l1.293-10.022l16.651,2.586L282.724,431.045z"/>
	<path id="OR" fill="#00BDF2" d="M140.306,176.686l4.298-17.9l4.665-17.879l1.051-4.229l2.354-5.623l-0.615-1.163l-2.515-0.046
		l-1.282-1.67l0.458-1.464l0.503-3.247l4.458-5.487l1.829-1.099l1.143-1.143l1.486-3.566l4.047-5.669l3.565-3.862l0.229-3.451
		l-3.269-2.469l-1.209-4.51l-13.238-3.745l-15.089-3.543l-15.432,0.114l-0.458-1.372l-5.487,2.058l-4.458-0.572l-2.401-1.6
		l-1.257,0.686l-4.687-0.229l-1.715-1.372l-5.258-2.058l-0.8,0.114l-4.344-1.486l-1.943,1.829l-6.173-0.343l-5.944-4.115l0.686-0.8
		L73.732,68l-2.286-3.887l-4.115-0.572l-0.686-2.515l-2.354-0.466l-5.799,2.059l-2.263,6.466l-3.233,10.023l-3.233,6.466
		L44.752,99.64l-6.467,13.58l-8.083,12.61l-1.94,2.91l-0.808,8.568l-1.293,5.981l2.708,3.527l6.729,2.251l11.592,3.293l7.866,2.539
		l12.414,3.634l13.328,3.59l13.168,3.565"/>
	<path id="ND" fill="#00BDF2" d="M471.306,127.668l-0.365-7.496l-1.989-7.316l-1.829-13.649l-0.457-9.831l-1.99-3.108l-1.6-5.351
		V70.629l0.686-3.887l-2.115-5.499l-28.424-0.564l-18.591-0.646l-26.512-1.293l-24.946-1.884l-1.261,14.23l-1.372,15.089
		l-2.259,24.947l-0.486,11.021l56.816,3.764L471.306,127.668z"/>
	<path id="SD" fill="#00BDF2" d="M472.797,203.181l-0.953-1.081l-1.521-3.627l1.829-3.702l1.051-5.555l-2.583-2.058l-0.297-2.744
		l0.594-2.996l2.15-0.802l0.297-5.735l-0.068-30.086l-0.618-2.972l-4.115-3.59l-0.982-1.989v-1.921l1.897-1.279l1.532-1.854
		l0.183-2.719l-57.383-1.6l-56.174-3.887l-0.767,5.279l-1.613,15.868l-1.345,17.947l-1.6,24.597l16.028,1.029l19.637,1.143
		l17.993,1.303l23.776,1.304l10.745-0.778l2.86,2.287l4.319,2.972l0.983,0.754l3.541-0.891l4.047-0.297l2.743-0.068l3.113,1.211
		l4.548,1.439l3.133,1.761l0.618,1.921l0.914,1.897l0.706-0.481L472.797,203.181z"/>
	<path id="NE" fill="#00BDF2" d="M484.244,246.99l1.372,2.675l0.093,2.126l2.354,3.726l2.72,3.152h-5.05l-43.482-0.939l-40.787-0.89
		l-21.191-0.961l1.073-21.328l-33.379-2.744l4.344-44.01l15.546,1.029l20.119,1.143l17.832,1.143l23.777,1.143l10.745-0.457
		l2.058,2.286l4.801,2.972l1.144,0.915l4.344-1.372l3.887-0.458l2.743-0.229l1.829,1.372l5.029,1.601l2.973,1.6l0.457,1.601
		l0.915,2.058h1.828l0.799,0.046l0.982,5.212l2.743,8.026l1.235,4.641l2.126,3.818l0.525,4.938l1.439,4.276l0.55,6.469"/>
	<path id="IA" fill="#00BDF2" d="M566.594,201.628l0.17,1.942l2.287,1.14l1.141,1.257l0.344,1.262l3.887,3.202l0.687,2.173
		l-0.8,2.862l-1.488,3.544l-0.8,2.742l-2.173,1.603l-1.715,0.572l-5.485,1.485l-0.687,2.283l-0.799,2.285l0.572,1.372l1.716,1.714
		l-0.002,3.661l-2.169,1.601l-0.459,1.487v2.517l-1.489,0.457l-1.714,1.37l-0.455,1.485l0.455,1.717l-1.374,1.205l-2.294-2.691
		l-1.483-2.626l-8.341,0.799l-10.171,0.571l-25.036,0.688l-13.035,0.229l-9.374,0.229l-1.315,0.122l-1.654-4.472l-0.229-6.63
		l-1.601-4.115l-0.686-5.258l-2.287-3.658l-0.914-4.801l-2.743-7.544l-1.144-5.373l-1.372-2.172l-1.6-2.744l1.829-4.344l1.371-5.716
		l-2.743-2.058l-0.457-2.743l0.914-2.515h1.715h11.545l49.611-0.686l19.877-0.686l1.851,2.747l1.833,2.622l0.455,0.804l-1.83,2.749
		l0.455,4.222l2.515,3.886l2.969,1.824l2.405,0.23L566.594,201.628z"/>
	<path id="MS" fill="#00BDF2" d="M624.559,466.97l-0.254,1.256h-5.173l-1.455-0.809l-2.102-0.323l-6.79,1.94l-1.778-0.809
		l-2.587,4.203l-1.103,0.778l-1.123-2.488l-1.144-3.887l-3.43-3.2l1.144-7.545l-0.686-0.914l-1.829,0.229l-8.23,0.686l-24.234,0.687
		l-0.457-1.601l0.686-8.002l3.43-6.173l5.258-9.145l-0.914-2.058h1.144l0.686-3.201l-2.286-1.829l0.229-1.829l-2.058-4.572
		l-0.286-5.344l1.372-2.658l-0.4-4.344l-1.371-2.972l1.371-1.372l-1.371-2.058l0.457-1.829l0.914-6.173l2.973-2.743l-0.687-2.058
		l3.658-5.259l2.743-0.914v-2.515l-0.686-1.372l2.743-5.258l2.744-1.144l0.107-3.412l8.675-0.077l24.088-1.94l4.58-0.229
		l0.009,6.372l0.161,16.651l-0.808,31.038l-0.162,14.064l2.748,18.753L624.559,466.97z"/>
	<path id="IN" fill="#00BDF2" d="M618.421,300.855l0.064-2.858l0.485-4.526l2.264-2.91l1.778-3.88l2.586-4.203l-0.484-5.82
		l-1.778-2.748l-0.323-3.233l0.808-5.496l-0.484-6.952l-1.294-16.004l-1.293-15.358l-0.971-11.72l3.071,0.889l1.455,0.97
		l1.132-0.323l2.102-1.94l2.829-1.617l5.093-0.162l21.986-2.263l5.575-0.533l1.504,15.957l4.251,36.841l0.599,5.771l-0.372,2.263
		l1.229,1.795l0.096,1.373l-2.521,1.6l-3.54,1.551l-3.202,0.55l-0.599,4.867l-4.574,3.312l-2.797,4.01l0.323,2.377l-0.581,1.534
		h-3.326l-1.586-1.617l-2.493,1.262l-2.683,1.503l0.161,3.055l-1.193,0.258l-0.468-1.018l-2.167-1.503l-3.25,1.341l-1.552,3.006
		l-1.438-0.809l-1.455-1.599l-4.465,0.485l-5.593,0.97L618.421,300.855z"/>
	<path id="IL" fill="#00BDF2" d="M617.805,301.602v-3.605l0.258-4.867l2.377-3.137l1.778-3.766l2.587-3.863l-0.372-5.252
		l-2.005-3.542l-0.097-3.347l0.695-5.27l-0.825-7.178l-1.066-15.778l-1.294-15.017l-0.922-11.639l-0.272-0.921l-0.809-2.587
		l-1.293-3.718l-1.617-1.778l-1.454-2.587l-0.233-5.489l-9.903,1.312l-27.206,1.715l-8.688-0.429l0.229,2.372l2.286,0.686
		l0.915,1.143l0.457,1.829l3.887,3.429l0.686,2.286l-0.686,3.429l-1.829,3.658l-0.687,2.515l-2.286,1.829l-1.829,0.686l-5.258,1.372
		l-0.686,1.829l-0.687,2.058l0.687,1.372l1.828,1.6l-0.229,4.115l-1.828,1.601l-0.687,1.601v2.743l-1.829,0.457l-1.6,1.144
		l-0.229,1.372l0.229,2.058l-1.715,1.314l-1.029,2.801l0.457,3.658l2.287,7.316l7.315,7.545l5.487,3.658l-0.229,4.344l0.914,1.372
		l6.401,0.457l2.743,1.372l-0.686,3.658l-2.286,5.944l-0.686,3.201l2.286,3.886l6.401,5.258l4.572,0.686l2.058,5.03l2.058,3.2
		l-0.914,2.973l1.6,4.115l1.829,2.058l1.944-0.792l0.687-2.164l2.037-1.438l3.236-1.101l3.088,1.18l2.876,1.066l0.791-0.21
		l-0.065-1.241l-1.066-2.766l0.438-2.377l2.28-1.568l2.359-0.987l1.163-0.42l-0.582-1.324l-0.76-2.167l1.245-1.262L617.805,301.602z
		"/>
	<path id="MN" fill="#00BDF2" d="M471.879,128.471l-0.457-8.459l-1.829-7.316l-1.829-13.489l-0.457-9.831l-1.829-3.429l-1.601-5.03
		V70.629l0.687-3.887l-1.821-5.452l30.133,0.035l0.323-8.245l0.646-0.162l2.263,0.485l1.94,0.809l0.809,5.497l1.454,6.143
		l1.617,1.616h4.85l0.323,1.455l6.305,0.323v2.102h4.85l0.323-1.293l1.132-1.132l2.264-0.646l1.293,0.97h2.91l3.88,2.587
		l5.335,2.425l2.425,0.485l0.484-0.97l1.455-0.485l0.485,2.91l2.587,1.293l0.484-0.485l1.293,0.162v2.102l2.587,0.97h3.071
		l1.617-0.809l3.233-3.233l2.586-0.485l0.809,1.778l0.485,1.293h0.97l0.97-0.808l8.892-0.323l1.778,3.071h0.646l0.714-1.084
		l4.439-0.371l-0.612,2.28l-3.938,1.837l-9.246,4.061l-4.774,2.007l-3.071,2.587l-2.425,3.556l-2.264,3.88l-1.778,0.809
		l-4.526,5.011l-1.293,0.162l-3.842,2.934l-2.816,3.161l-0.229,2.97l0.227,7.778l-1.597,1.6l-5.259,4.114l-1.832,5.717l2.519,3.648
		l0.458,2.52l-1.147,2.974l-0.228,3.659l0.458,7.084l3.426,4.107h2.976l2.51,2.293l3.202,1.365l3.659,5.035l7.088,5.023l1.83,2.062
		l0.234,5.502l-20.588,0.686l-60.249,0.459l-0.338-35.677l-0.457-2.972l-4.115-3.429l-1.144-1.829v-1.601l2.058-1.6l1.372-1.372
		L471.879,128.471z"/>
	<path id="WI" fill="#00BDF2" d="M612.941,197.181l0.37-2.97l-1.616-4.527l-0.646-6.143l-1.132-2.425l0.97-3.071l0.809-2.91
		l1.455-2.586l-0.647-3.395l-0.646-3.557l0.485-1.778l1.939-2.425l0.162-2.748l-0.809-1.293l0.646-2.586l0.485-3.233l2.748-5.658
		l2.91-6.79l0.161-2.263l-0.323-0.97l-0.808,0.485l-4.203,6.305l-2.749,4.042l-1.939,1.778l-0.809,2.263l-1.455,0.808l-1.131,1.94
		l-1.455-0.323l-0.162-1.778l1.294-2.425l2.102-4.688l1.777-1.617l1.102-2.292l-1.631-0.905l-1.371-1.372l-1.601-10.288
		l-3.658-1.143l-1.371-2.287l-12.574-2.743l-2.516-1.143l-8.23-2.287l-8.229-1.143l-4.17-5.405l-0.529,1.261l-1.132-0.162
		l-0.646-1.132l-2.748-0.808l-1.132,0.162l-1.778,0.97l-0.97-0.647l0.646-1.94l1.939-3.071l1.132-1.132l-1.939-1.455l-2.102,0.808
		l-2.91,1.94l-7.437,3.233l-2.91,0.647l-2.909-0.485l-0.982-0.878l-2.116,2.835l-0.229,2.744v8.459l-1.144,1.601l-5.258,3.886
		l-2.286,5.944l0.457,0.229l2.515,2.058l0.686,3.201l-1.829,3.201v3.887l0.458,6.63l2.972,2.972h3.43l1.829,3.201l3.429,0.458
		l3.887,5.715l7.088,4.115l2.057,2.744l0.915,7.43l0.686,3.315l2.286,1.601l0.229,1.372l-2.058,3.429l0.229,3.201l2.515,3.887
		l2.515,1.143l2.972,0.458l1.343,1.38h9.174l26.066-1.487L612.941,197.181z"/>
	<path id="MO" fill="#00BDF2" d="M555.789,249.527l-2.521-3.087l-1.143-2.286l-7.773,0.686l-9.831,0.457l-25.377,0.915
		l-13.488,0.229l-7.888,0.115l-2.286,0.114l1.257,2.515l-0.229,2.286l2.515,3.887l3.087,4.115l3.086,2.743l2.286,0.229l1.372,0.915
		v2.972l-1.829,1.601l-0.457,2.286l2.058,3.43l2.515,2.972l2.515,1.829l1.372,11.66l-0.686,35.323l0.229,4.687l0.457,5.384
		l23.433-0.117l23.206-0.686l20.805-0.802l11.655-0.229l2.169,3.426l-0.684,3.308l-3.088,2.402l-0.572,1.838l5.379,0.457
		l3.895-0.686l1.718-5.494l0.651-5.856l2.318-2.025l1.713-1.486l2.058-1.03l0.114-2.859l0.574-1.716l-1.031-1.748l-2.745,0.145
		l-2.169-2.625l-1.374-4.229l0.802-2.519l-1.944-3.428l-1.831-4.576l-4.799-0.799l-6.969-5.599l-1.72-4.113l0.8-3.201l2.06-6.058
		l0.459-2.864l-1.949-1.031l-6.855-0.798l-1.028-1.712l-0.111-4.23l-5.487-3.431l-6.976-7.771l-2.286-7.316l-0.23-4.225
		L555.789,249.527z"/>
	<path id="AR" fill="#00BDF2" d="M590.952,344.953l-3.848,0.938l-6.173-0.457l0.687-2.972l3.2-2.744l0.457-2.286l-1.828-2.972
		l-10.975,0.457l-20.805,0.915l-23.319,0.686l-23.319,0.457l1.601,6.858v8.23l1.371,10.975l0.229,37.837l2.286,1.943l2.972-1.372
		l2.743,1.144l0.431,10.323l22.886-0.143l18.864-0.801l10.121-0.197l1.146-2.091l-0.286-3.55l-1.826-2.972l1.6-1.485l-1.6-2.512
		l0.685-2.51l1.368-5.605l2.519-2.062l-0.686-2.284l3.657-5.372l2.744-1.368l-0.114-1.494l-0.345-1.825l2.856-5.599l2.403-1.257
		l0.384-3.428l1.771-1.241l0.857-4.234l-1.342-4.011l4.041-2.377l0.551-2.019l1.235-4.268L590.952,344.953z"/>
	<path id="OK" fill="#00BDF2" d="M375.343,322.571l-10.688-0.457l-6.43-0.485l0.257,0.199l-0.704,10.423l21.965,1.406l32.056,1.304
		l-2.335,24.419l-0.457,17.832l0.229,1.601l4.344,3.658l2.058,1.143l0.687-0.229l0.686-2.058l1.371,1.829h2.059v-1.371l2.743,1.371
		l-0.457,3.887l4.115,0.229l2.515,1.144l4.115,0.686l2.515,1.829l2.286-2.058l3.43,0.686l2.515,3.43h0.914v2.286l2.286,0.686
		l2.287-2.286l1.828,0.687h2.516l0.914,2.515l4.801,1.829l1.372-0.687l1.829-4.115h1.143l1.144,2.058l4.115,0.687l3.658,1.371
		l2.972,0.915l1.829-0.915l0.686-2.515h4.344l2.058,0.915l2.744-2.058h1.143l0.687,1.6h4.115l1.6-2.058l1.829,0.458l2.058,2.515
		l3.201,1.829l3.2,0.914l1.941,1.119l-0.389-37.217l-1.372-10.975l-0.161-8.872l-1.439-6.538l-0.778-7.18l-0.068-3.815
		l-12.137,0.318l-46.41-0.457l-45.038-2.058L375.343,322.571z"/>
	<path id="KS" fill="#00BDF2" d="M503.381,325.13l-12.618,0.205l-46.09-0.457l-44.557-2.058l-24.63-1.258l4.144-64.72l21.833,0.8
		l40.466,1.372l44.125,0.458h5.096l3.247,3.225l2.768,0.229l0.89,1.075v2.009l-1.828,1.601l-0.458,2.607l2.219,3.59l2.515,3.133
		l2.515,1.989l1.051,11.178L503.381,325.13z"/>
	<path id="LA" fill="#00BDF2" d="M602.202,472.995l-1.029-2.616l-1.144-3.093l-3.315-3.541l0.916-6.75l-0.118-1.142l-1.262,0.342
		l-8.23,0.913l-25.028,0.459l-0.685-2.395l0.913-8.456l3.315-5.945l5.031-8.691l-0.573-2.398l1.256-0.681l0.459-1.952l-2.286-2.056
		l-0.111-1.942l-1.831-4.346l-0.456-5.941l-9.725,0.113l-19.205,0.915l-22.205,0.028l0.029,9.574l0.686,9.373l0.686,3.887
		l2.516,4.115l0.914,5.029l4.344,5.487l0.229,3.2l0.687,0.687l-0.687,8.459l-2.972,5.029l1.601,2.058l-0.687,2.515l-0.686,7.316
		l-1.372,3.2l0.123,3.617l4.687-1.521l8.083-0.323l10.346,3.557l6.467,1.132l3.718-1.455l3.233,1.132l3.233,0.97l0.809-2.102
		l-3.233-1.132l-2.587,0.485l-2.748-1.617c0,0,0.161-1.293,0.809-1.455c0.646-0.161,3.071-0.97,3.071-0.97l1.778,1.455l1.778-0.97
		l3.233,0.646l1.454,2.425l0.324,2.264l4.526,0.323l1.778,1.778l-0.809,1.616l-1.293,0.809l1.616,1.616l8.406,3.557l3.557-1.293
		l0.97-2.425l2.587-0.647l1.778-1.454l1.293,0.97l0.809,2.91l-2.264,0.808l0.646,0.646l3.396-1.293l2.263-3.395l0.809-0.485
		l-2.102-0.323l0.809-1.616l-0.162-1.455l2.102-0.485l1.132-1.293l0.646,0.808c0,0-0.161,3.072,0.646,3.072
		c0.809,0,4.203,0.646,4.203,0.646l4.042,1.939l0.97,1.455h2.91l1.132,0.971l2.263-3.072v-1.455h-1.293l-3.396-2.748l-5.819-0.809
		l-3.233-2.263l1.132-2.748l2.264,0.323l0.161-0.646l-1.778-0.971v-0.484h3.233l1.778-3.071l-1.293-1.94l-0.323-2.748l-1.455,0.161
		l-1.94,2.102l-0.646,2.587l-3.071-0.646l-0.971-1.778l1.778-1.94l2.021-1.777L602.202,472.995z"/>
	<path id="VA" fill="#00BDF2" d="M828.906,269.246l-0.144-1.947l6.453-2.55l-0.771,3.218l-2.92,3.779l-0.418,4.586l0.462,3.391
		l-1.828,4.978l-2.164,1.916l-1.471-4.641l0.446-5.449l1.587-4.183L828.906,269.246z M831.187,297.547l-58.175,12.575l-37.427,5.279
		l-6.679-0.375l-2.585,1.927l-7.339,0.221l-8.382,0.978l-8.927,0.951l8.48-4.948l-0.013-2.074l1.52-2.146l10.554-11.501l3.947,4.478
		l3.783,0.964l2.543-1.14l2.237-1.312l2.537,1.344l3.914-1.428l1.877-4.557l2.601,0.54l2.855-2.131l1.799,0.493l2.827-3.676
		l0.349-2.083l-0.964-1.276l1.003-1.867l5.274-12.277l0.616-5.735l1.229-0.523l2.178,2.443l3.937-0.301l1.929-7.573l2.794-0.561
		l1.05-2.741l2.58-2.347l1.268-2.342l1.504-3.353l0.085-5.067l9.822,3.823c0.681,0.34,0.655-4.784,0.655-4.784l4.051,1.377
		l-0.462,2.629l8.156,2.939l1.293,1.794l-0.868,3.682l-1.264,1.326l-0.506,1.746l0.494,2.403l1.959,1.278l3.918,1.445l2.949,0.968
		l4.856,0.942l2.152,2.088l3.19,0.402l0.868,1.2l-0.439,4.69l1.374,1.103l-0.479,1.931l1.229,0.79l-0.222,1.385l-2.694-0.095
		l0.089,1.616l2.281,1.543l0.121,1.412l1.773,1.786l0.491,2.524l-2.553,1.381l1.572,1.494l5.801-1.686L831.187,297.547z"/>
	<path id="DC" fill="#00BDF2" d="M801.757,253.844l-1.077-1.637l-1.014-0.842l1.1-1.616l2.232,1.511L801.757,253.844z"/>
	<path id="PR" fill="#00BDF2" d="M569.216,530.231l0.858-2.142l1.713,0.429l1.713,1.284l7.284,0.857l7.284-0.429h2.999l2.57,0.856
		l1.715-1.285h2.142l5.141,0.429l5.142,1.285l1.714,1.714h2.999l0.428,2.571l-0.428,1.714l-3.427,0.428l-2.144,0.857l-0.857,2.142
		l-1.285,2.143l-2.569,1.285h-5.143h-4.283l-2.142-0.856l0,0h-4.285l-2.143-0.857l-3.428,0.857H576.5l-2.142-1.714l-2.571,0.856
		l-3.428,0.429l-0.429-2.143l0.856-1.285l0.857-2.142l-0.857-2.571l-3.426-2.571l1.284-0.856L569.216,530.231z M615.928,541.806
		l-1.858,0.62l3.717,1.238l4.956-1.238l1.239-1.858l-3.098,0.619L615.928,541.806z M624.601,537.47l-1.549-0.93l2.168-1.549
		l0.62,1.549L624.601,537.47z"/>
	<path id="VI" fill="#00BDF2" d="M645.381,524.068l-1.459,1.095l-1.823,1.093l0.364,1.459l1.823,0.729l2.554-0.364l1.093,1.825
		h1.823l1.095-1.094l4.012-0.731l1.822-0.364l1.46-1.095l-0.729-1.457h-2.188l-5.107-1.095H645.381z M659.833,525.47l-0.284,0.992
		l0.853,0.497l1.994-0.248l1.424,0.745l1.139-0.249l0.286-1.243l0,0l1.423-0.992l0.285-0.993l-1.14-0.496l-1.709,0.496l-1.993-0.742
		l-0.854,0.742l-0.285,0.993L659.833,525.47z M654.528,545.889l2.606-0.652l1.63,0.327l2.279-1.304l0.979,0.326l0.65,0.978
		l0.978,1.63l1.954-0.978l0.978,0.65l4.271-0.588l0.484,2.429l-1.823,0.765h-3.257l-5.539,1.63l-2.279-0.324l-3.911,0.649
		l-1.302-0.649l-0.978,0.649l-2.607,0.328c0,0-1.538-0.498-0.325-1.306c1.953-1.302,0.978-3.583,0.978-3.583L654.528,545.889z"/>
	<path id="GU" fill="#00BDF2" d="M584.942,560.61c0.042,0,0.084,0,0.126,0c0.428,0,0.839,0.14,1.259,0.21
		c0.552,0.092,0.796,0.752,1.26,0.944c0.494,0.207,0.638,0.637,1.007,0.945c0.108,0.09,0.217,0.271,0.252,0.314
		c0.725,0.604-0.755,1.181,0.882,0.84c0.037-0.008,1.296,0.479,1.511,0.524c0.619,0.129,1.287,0.111,1.764,0.21
		c0.601,0.126-0.604,0.902-0.882,1.364c-0.261,0.436-0.126,1.088-0.126,1.575c0,0.613-0.133,0.968-0.252,1.364
		c-0.144,0.479-0.458,0.801-0.756,1.049c-0.313,0.262-0.9,0.529-1.385,0.63c-0.646,0.135-0.594,0.525-1.511,0.525
		c-0.439,0-0.499,1.04-0.63,1.259c-0.383,0.639-1.135,0.004-1.386,0.84c-0.162,0.543-0.497,0.52-0.881,0.84
		c-0.361,0.301-0.903,0.481-1.26,0.63c-0.608,0.254-0.986,0.524-1.763,0.524c-0.309,0-0.896,0.927-1.008,1.05
		c-0.369,0.41-0.541,0.661-0.881,0.944c-0.15,0.125-1.189-0.093-1.638,0c-0.065,0.014,0,1.433,0,1.574
		c0,0.247-0.821,0.636-0.882,0.735c-0.114,0.191,0.252,1.243,0.252,1.574c0,0.516-0.017,1.106-0.125,1.469
		c-0.145,0.481-0.124,1.05-0.756,1.05c-0.661,0,0.365,0.829,0.504,0.944c0.22,0.184,0.175,1.109,0.252,1.365
		c0.205,0.687-0.378,0.925-0.378,1.469c0,0.035-1.016,0.581-1.134,0.63c-0.361,0.15-0.694,0.579-1.008,0.84
		c-0.481,0.401-0.583,0.591-1.007,0.944c-0.414,0.345-0.999,0.313-1.638,0.42c-0.584,0.098-1.076,0.21-1.763,0.21
		c-0.386,0-0.893-0.639-1.133-0.84c-0.545-0.453-0.713,0.25-1.008-0.734c-0.028-0.094-0.408-0.837-0.504-1.154
		c-0.17-0.567-0.123-0.937-0.252-1.364c-0.112-0.374-0.49-0.586-0.63-1.05c-0.16-0.537-0.082-1.082-0.377-1.574
		c-0.304-0.506-0.882-0.31-0.882-1.155c0-0.719,0.342-0.778,0.63-1.259c0.197-0.329,0.399-0.912,0.504-1.26
		c0.104-0.35,0.554-0.923,0.755-1.26c0.05-0.083-0.126-0.427-0.126-0.629l-3.148-2.414c0.556-0.926,0.69-0.593,1.638,0
		c0.516,0.322,0.934,0.33,1.511,0.209c0.476-0.099,0.447-1.26,0.447-0.268c0,0.731-0.167-0.111,0.508-0.315
		c1.164-0.353,1.054-0.288,0.053,0.269c-0.225,0.125,1.054,0.471,0.756-0.524c-0.157-0.521-1.012,0.014-0.756-0.84
		c0.094-0.313,1.919,0.085,2.015,0.104c0.547,0.114,0.948-0.629,1.512-0.629c0.547,0,1.232-0.21,1.889-0.21
		c0.485,0,1.377-0.235,1.763-0.315c0.775-0.161,1.119-0.201,1.637-0.524c0.356-0.223-0.22-1.364-0.251-1.47
		c-0.164-0.544,1.743-0.003,1.763,0c0.813,0.136,0.904-0.707,1.008-1.05c0.203-0.68,0.312-0.864,1.007-1.154
		c0.771-0.321,1.008-0.812,1.008-1.469c0-0.984,0.436-1.29,0.63-2.1c0.146-0.614-0.145-0.784,0.377-1.364
		c0.551-0.612,0.945-0.841,1.26-1.364c0.283-0.473,0.252-0.87,0.252-1.47c0-0.553,0.155-0.604-0.378-1.05"/>
	<path id="MP" fill="#00BDF2" d="M644.48,558.693l1.074-0.721l0.901-0.598L644.48,558.693z M644.561,564.251l1.977,1.978
		l-0.176-1.872L644.561,564.251z M649.17,570.181l1.318,3.294l0,0l1.318-3.294H649.17z M654.441,576.769v3.294l1.976,0.658
		l0.659-3.293L654.441,576.769z M663.088,585.209l-1.729,3.087l0.576,1.853l2.882,1.235l1.153-1.854v-3.088L663.088,585.209z"/>
	<path id="AS" fill="#00BDF2" d="M609.496,582.5c0.225-0.103,0.55-0.645,0.703-0.924c0.259-0.472-0.251-0.564,0.391-0.711
		c0.317-0.072,0.679,0.405,0.78,0.498c0.248,0.226,0.409,0.429,0.546-0.071c0.056-0.203,0.706-0.908,0.937-1.065
		c0.307-0.209,0.561-0.227,0.858-0.498c0.249-0.226,0.478-0.434,0.703-0.639c0.281-0.257,0.431-0.359,0.624-0.711
		c0.181-0.328,0.438-0.541,0.625-0.711c0.417-0.379-1.022-0.213-1.64-0.213c-0.162,0,0.281-0.638,0.312-0.781
		c0.094-0.429,0.214-0.404,0.624-0.498c0.587-0.133,0.625,0.135,0.625,0.569c0,0.289,0.469-0.431,0.546-0.711
		c0.107-0.39,0.365-0.557,0.703-0.711c0.331-0.15,0.699-0.247,0.937-0.354c0.414-0.189,0.404-0.161,0.312-0.498
		c-0.057-0.207,0.059-0.641,0-0.853c-0.124-0.451,0.504-0.078,0.234-0.568c-0.117-0.213-0.801-0.364-0.937-0.426
		c-0.39-0.178-0.741-0.124-1.093-0.284c-0.421-0.192-0.344-0.327-0.078-0.568c0.149-0.136,0.967,0.042,1.093,0.07
		c0.371,0.085,0.766,0.071,1.171,0.071c0.523,0,0.819,0.018,1.249,0.213c0.322,0.147,0.233,0.433,0.233,0.853
		c0,0.464-0.137,0.68,0.312,0.782c0.547,0.124,0.659,0.029,1.015-0.214c0.146-0.099,1.143-0.193,1.249-0.213
		c0.421-0.076,0.659-0.245,0.858-0.426c0.284-0.259,0.662-0.461,0.858-0.64c0.292-0.266,0.566-0.342,0.937-0.427
		c0.477-0.108,0.672,0.186,0.859,0.355c0.188,0.172,0.078,0.749,0.078,0.995c0,0.221,1.429-0.331,1.482-0.355
		c0.418-0.19,0.677-0.119,0.937-0.355c0.364-0.332,0.12-0.559,0.703-0.426c0.443,0.101,0.713-0.127,1.092-0.214
		c0.411-0.093,0.312-0.341,0.312-0.781c0-0.355,0-0.711,0-1.065c0-0.503-0.312-0.409-0.702-0.498
		c-0.321-0.073-0.766,0.129-0.937,0.284c-0.335,0.305-0.424,0.193-0.547,0.64c-0.114,0.417-0.163,0.466-0.546,0.64
		c-0.185,0.084-0.526-0.355-0.937-0.355c-0.443,0-0.613-0.243-0.858-0.355c-0.345-0.156-0.614-0.213-1.093-0.213
		c-0.174,0-0.43,0.418-0.781,0.497c-0.315,0.072-0.912,0-1.015,0c-0.321,0,0.373-0.773,0.391-0.781
		c0.432-0.196,0.965,0.039,0.078-0.284c-0.347-0.126-0.826,0.071-1.171,0.071c-0.568,0-0.624,0.077-0.624,0.568
		c0,0.484-0.291,0.426-0.781,0.426c-0.303,0-0.174-0.644-0.468-0.71c-0.485-0.11-0.441,0.312-0.625-0.355
		c-0.071-0.262-0.648,0.022-0.858,0.213c-0.23,0.21-0.742-0.079-0.156-0.213c0.502-0.114-0.247-0.568-0.546-0.568
		c-0.521,0-0.44,0.32-0.702,0.64c-0.261,0.316-0.646,0.078-0.781,0.568c-0.067,0.248-0.603,0.31-0.858,0.426
		c-0.389,0.178-0.683,0.347-1.015,0.498c-0.485,0.221-1.082,0.142-1.639,0.142c-0.291,0,0.156,0.517,0.156,0.782
		c0,0.354,0,0.71,0,1.065c0,0.578-0.083,0.445-0.625,0.568c-0.293,0.066-0.515-0.284-0.937-0.284c-0.514,0-0.624,0.224-0.624,0.64
		c0,0.455-0.431,0.195-0.781,0.355c-0.43,0.195-0.78,0.286-0.78-0.214c0-0.376-0.434-0.418-0.78-0.497
		c-0.507-0.115-0.517,0.342-0.858,0.497c-0.386,0.176-0.8,0.115-1.171,0.284c-0.102,0.047-0.314-0.516-0.547-0.568
		c-0.4-0.091-0.951,0.057-1.326,0.143c-0.452,0.103-0.224,0.426-0.781,0.426c-0.424,0-0.787,0.109-1.015,0.214
		c-0.211,0.096,0.351,0.426-0.546,0.426c-0.573,0-0.654,0.055-0.858,0.427c-0.231,0.421-0.046,0.561-0.703,0.71
		c-0.197,0.045-0.574,0.457-0.624,0.64c-0.083,0.302-1.045,0.26-0.312,0.427c0.395,0.089,0.732,0.113,1.171,0.213
		c0.378,0.086,0.844,0.242,1.093,0.355c0.258,0.117,0.942-0.037,1.093-0.071c0.387-0.088,0.361-0.227,0.858,0
		c0.303,0.138,0.256,0.507,0.547,0.64c0.276,0.125,1.105,0.071,1.404,0.071c0.072,0,0.133,0.909,0.156,0.994
		c0.058,0.209,0.156,0.638,0.234,0.924c0.024,0.09,0.749,0.398,0.858,0.497c0.217,0.197,0.506,0.293,0.78,0.355
		c0.448,0.102,0.627,0.073,0.859,0.284C609.658,581.795,609.371,582.213,609.496,582.5z"/>
</g>
<g id="DC-label">
	<line fill="none" stroke="#FF0000" stroke-width="2" x1="800" y1="250" x2="910" y2="333"/>
	<path fill="#FF0000" d="M913,325h24c1.657,0,3,1.343,3,3v11c0,1.657-1.343,3-3,3h-24c-1.657,0-3-1.343-3-3v-11
		C910,326.343,911.343,325,913,325z"/>
	<text transform="matrix(1 0 0 1 915 339)" font-family="'Arial-BoldMT'" font-size="15">DC</text>
</g>
<g id="MD-label">
	<line fill="none" stroke="#FF0000" stroke-width="2" x1="830" y1="260" x2="910" y2="308"/>
	<path fill="#FF0000" d="M913,300h24c1.657,0,3,1.343,3,3v11c0,1.657-1.343,3-3,3h-24c-1.657,0-3-1.343-3-3v-11
		C910,301.343,911.343,300,913,300z"/>
	<text transform="matrix(1 0 0 1 915 314)" font-family="'Arial-BoldMT'" font-size="15">MD</text>
</g>
<g id="DE-label">
	<line fill="none" stroke="#FF0000" stroke-width="2" x1="830" y1="250" x2="910" y2="283"/>
	<path fill="#FF0000" d="M913,275h24c1.657,0,3,1.343,3,3v11c0,1.657-1.343,3-3,3h-24c-1.657,0-3-1.343-3-3v-11
		C910,276.343,911.343,275,913,275z"/>
	<text transform="matrix(1 0 0 1 915 289)" font-family="'Arial-BoldMT'" font-size="15">DE</text>
</g>
<g id="NJ-label">
	<line fill="none" stroke="#FF0000" stroke-width="2" x1="840" y1="230" x2="910" y2="258"/>
	<path fill="#FF0000" d="M913,250h24c1.657,0,3,1.343,3,3v11c0,1.657-1.343,3-3,3h-24c-1.657,0-3-1.343-3-3v-11
		C910,251.343,911.343,250,913,250z"/>
	<text transform="matrix(1 0 0 1 915 264)" font-family="'Arial-BoldMT'" font-size="15">NJ</text>
</g>
<g id="CT-label">
	<line fill="none" stroke="#FF0000" stroke-width="2" x1="860" y1="180" x2="910" y2="233"/>
	<path fill="#FF0000" d="M913,225h24c1.657,0,3,1.343,3,3v11c0,1.657-1.343,3-3,3h-24c-1.657,0-3-1.343-3-3v-11
		C910,226.343,911.343,225,913,225z"/>
	<text transform="matrix(1 0 0 1 915 239)" font-family="'Arial-BoldMT'" font-size="15">CT</text>
</g>
<g id="RI-label">
	<line fill="none" stroke="#FF0000" stroke-width="2" x1="878" y1="173" x2="910" y2="208"/>
	<path fill="#FF0000" d="M913,200h24c1.657,0,3,1.343,3,3v11c0,1.657-1.343,3-3,3h-24c-1.657,0-3-1.343-3-3v-11
		C910,201.343,911.343,200,913,200z"/>
	<text transform="matrix(1 0 0 1 917 214)" font-family="'Arial-BoldMT'" font-size="15">RI</text>
</g>
<g id="MH-label">
	<line fill="none" stroke="#FF0000" stroke-width="2" x1="885" y1="160" x2="910" y2="183"/>
	<path fill="#FF0000" d="M913,175h24c1.657,0,3,1.343,3,3v11c0,1.657-1.343,3-3,3h-24c-1.657,0-3-1.343-3-3v-11
		C910,176.343,911.343,175,913,175z"/>
	<text transform="matrix(1 0 0 1 914 189)" font-family="'Arial-BoldMT'" font-size="15">MH</text>
</g>
<g id="MH-label_1_">
	<line fill="none" stroke="#FF0000" stroke-width="2" x1="870" y1="140" x2="910" y2="158"/>
	<path fill="#FF0000" d="M913,150h24c1.657,0,3,1.343,3,3v11c0,1.657-1.343,3-3,3h-24c-1.657,0-3-1.343-3-3v-11
		C910,151.343,911.343,150,913,150z"/>
	<text transform="matrix(1 0 0 1 915 164)" font-family="'Arial-BoldMT'" font-size="15">NH</text>
</g>
<g id="VT-label">
	<line fill="none" stroke="#FF0000" stroke-width="2" x1="845" y1="130" x2="910" y2="133"/>
	<path fill="#FF0000" d="M913,125h24c1.657,0,3,1.343,3,3v11c0,1.657-1.343,3-3,3h-24c-1.657,0-3-1.343-3-3v-11
		C910,126.343,911.343,125,913,125z"/>
	<text transform="matrix(1 0 0 1 915 139)" font-family="'Arial-BoldMT'" font-size="15">VT</text>
</g>
<g id="AS-label">
	<path fill="#FF0000" d="M605,595h24c1.657,0,3,1.343,3,3v11c0,1.657-1.343,3-3,3h-24c-1.657,0-3-1.343-3-3v-11
		C602,596.343,603.343,595,605,595z"/>
	<text transform="matrix(1 0 0 1 607 609)" font-family="'Arial-BoldMT'" font-size="15">AS</text>
</g>
<g id="MP-label">
	<path fill="#FF0000" d="M648,595h24c1.657,0,3,1.343,3,3v11c0,1.657-1.343,3-3,3h-24c-1.657,0-3-1.343-3-3v-11
		C645,596.343,646.343,595,648,595z"/>
	<text transform="matrix(1 0 0 1 650 609)" font-family="'Arial-BoldMT'" font-size="15">MP</text>
</g>
<g id="GU-label">
	<path fill="#FF0000" d="M562,595h24c1.657,0,3,1.343,3,3v11c0,1.657-1.343,3-3,3h-24c-1.657,0-3-1.343-3-3v-11
		C559,596.343,560.343,595,562,595z"/>
	<text transform="matrix(1 0 0 1 563 609)" font-family="'Arial-BoldMT'" font-size="15">GU</text>
</g>
<g id="VI-label">
	<path fill="#FF0000" d="M648,500h24c1.657,0,3,1.343,3,3v11c0,1.657-1.343,3-3,3h-24c-1.657,0-3-1.343-3-3v-11
		C645,501.343,646.343,500,648,500z"/>
	<text transform="matrix(1 0 0 1 653 514)" font-family="'Arial-BoldMT'" font-size="15">VI</text>
</g>
<g id="PR-label">
	<path fill="#FF0000" d="M578,500h24c1.657,0,3,1.343,3,3v11c0,1.657-1.343,3-3,3h-24c-1.657,0-3-1.343-3-3v-11
		C575,501.343,576.343,500,578,500z"/>
	<text transform="matrix(1 0 0 1 580 514)" font-family="'Arial-BoldMT'" font-size="15">PR</text>
</g>
<rect x="860" y="220" fill="#008000" width="70" height="120"/>

<script type="text/javascript"> <![CDATA[
    function addClickEvents() {
        var countries = document.getElementById('USmap').childNodes;
        var i;
        for (i=0;i<countries.length;i++){
            countries[i].addEventListener('click', showCountry);
        }
    }

    function showCountry(e) {
        var node = e.target;
        if (node.id != 'ocean') {
            node = getCorrectNode(node);
        }
        alert(node.id);
    }

    function getCorrectNode(node) {
        if (node.id.length == 2 || node.id == 'lakes') {
            return node;
        }
        return getCorrectNode(node.parentNode);
    }
]]> </script>



</svg>


